<?xml version="1.0" encoding="utf-8"?>
<!-- Generator: Adobe Illustrator 16.0.0, SVG Export Plug-In . SVG Version: 6.00 Build 0)  -->
<!DOCTYPE svg PUBLIC "-//W3C//DTD SVG 1.0//EN" "http://www.w3.org/TR/2001/REC-SVG-20010904/DTD/svg10.dtd">
<svg version="1.0" id="Layer_10" xmlns="http://www.w3.org/2000/svg" xmlns:xlink="http://www.w3.org/1999/xlink" x="0px" y="0px"
	 width="280px" height="66.475px" viewBox="0 0 280 66.475" enable-background="new 0 0 280 66.475" xml:space="preserve">
<g>
	<g>
		<path fill="#1C75BC" d="M234.488,23.81l-9.759,0.12c-1.705,12.853,5.674,25.397,18.258,29.756l-0.1-21.685
			C242.821,27.42,239.068,23.756,234.488,23.81z"/>
		<radialGradient id="SVGID_1_" cx="243.4263" cy="21.2319" r="13.9159" gradientUnits="userSpaceOnUse">
			<stop  offset="0" style="stop-color:#FFFFFF"/>
			<stop  offset="0.5255" style="stop-color:#A7D59A"/>
			<stop  offset="0.9448" style="stop-color:#5FB246"/>
		</radialGradient>
		<path fill="url(#SVGID_1_)" d="M242.747,14.24l0.338-12.604c-7.963,2.819-14.53,9.217-17.247,17.889
			c-0.363,1.175-0.604,2.12-0.819,3.3l9.543-0.191C239.14,22.578,242.805,18.822,242.747,14.24z"/>
		<radialGradient id="SVGID_2_" cx="244.7769" cy="23.4971" r="31.5714" gradientUnits="userSpaceOnUse">
			<stop  offset="0" style="stop-color:#FFFFFF"/>
			<stop  offset="0.1574" style="stop-color:#D0E9BE"/>
			<stop  offset="0.3336" style="stop-color:#A0D37C"/>
			<stop  offset="0.4619" style="stop-color:#82C553"/>
			<stop  offset="0.5276" style="stop-color:#77C043"/>
			<stop  offset="0.9202" style="stop-color:#009F47"/>
		</radialGradient>
		<path fill="url(#SVGID_2_)" d="M279.668,23.607l-26.836,0.33c-4.58,0.055-8.24,3.816-8.189,8.396l-0.584,22.065
			c14.641,4.13,30.113-3.647,34.67-18.244C280.042,31.955,280.305,27.678,279.668,23.607z"/>
		<path fill="#1C75BC" d="M252.862,22.365l26.592,0.194c-1.773-9.858-8.668-18.097-18.895-21.288
			c-5.494-1.722-11.125-1.639-16.25-0.094l0.162,12.996C244.524,18.754,248.282,22.421,252.862,22.365z"/>
	</g>
	<path opacity="0.19" fill="#054372" d="M264.12,62.889c0,0.732-5.316,1.326-11.883,1.326c-6.557,0-11.871-0.594-11.871-1.326
		c0-0.737,5.314-1.336,11.871-1.336C258.803,61.553,264.12,62.151,264.12,62.889z"/>
	<g>
		<g>
			<path fill="#054372" d="M106.434,56.42h0.95v3.273h0.025c0.15-0.264,0.387-0.514,0.676-0.68c0.286-0.159,0.617-0.257,0.974-0.257
				c0.705,0,1.832,0.433,1.832,2.228v3.112h-0.955V61.09c0-0.842-0.313-1.544-1.215-1.544c-0.613,0-1.093,0.43-1.274,0.938
				c-0.049,0.141-0.063,0.283-0.063,0.455v3.157h-0.95V56.42z"/>
			<path fill="#054372" d="M123.661,61.438c0,1.936-1.356,2.777-2.608,2.777c-1.405,0-2.509-1.039-2.509-2.691
				c0-1.737,1.154-2.767,2.594-2.767C122.641,58.757,123.661,59.848,123.661,61.438z M119.516,61.489
				c0,1.149,0.646,2.017,1.583,2.017c0.903,0,1.584-0.857,1.584-2.034c0-0.892-0.443-2.001-1.566-2.001
				C120.004,59.471,119.516,60.506,119.516,61.489z"/>
			<path fill="#054372" d="M131.211,63.134c0.295,0.172,0.792,0.372,1.266,0.372c0.682,0,1.007-0.338,1.007-0.783
				c0-0.455-0.269-0.691-0.96-0.953c-0.955-0.343-1.394-0.852-1.394-1.48c0-0.841,0.689-1.532,1.805-1.532
				c0.526,0,0.994,0.14,1.276,0.321l-0.229,0.692c-0.204-0.131-0.583-0.311-1.07-0.311c-0.565,0-0.865,0.326-0.865,0.714
				c0,0.43,0.3,0.625,0.982,0.896c0.9,0.338,1.374,0.791,1.374,1.568c0,0.931-0.721,1.576-1.948,1.576
				c-0.57,0-1.101-0.148-1.463-0.37L131.211,63.134z"/>
			<path fill="#054372" d="M142.114,60.57c0-0.669-0.021-1.208-0.044-1.705h0.839l0.057,0.897h0.021
				c0.379-0.64,1.006-1.006,1.865-1.006c1.274,0,2.224,1.068,2.224,2.651c0,1.875-1.16,2.807-2.39,2.807
				c-0.693,0-1.301-0.303-1.61-0.822h-0.023v2.846h-0.938V60.57z M143.052,61.965c0,0.142,0.01,0.273,0.046,0.393
				c0.175,0.658,0.742,1.114,1.426,1.114c1.004,0,1.586-0.823,1.586-2.022c0-1.039-0.549-1.938-1.551-1.938
				c-0.65,0-1.269,0.455-1.443,1.17c-0.029,0.117-0.063,0.258-0.063,0.379V61.965z"/>
			<path fill="#054372" d="M155.814,57.396c0,0.322-0.23,0.583-0.612,0.583c-0.342,0-0.57-0.261-0.57-0.583
				c0-0.325,0.238-0.597,0.593-0.597C155.574,56.799,155.814,57.056,155.814,57.396z M154.752,64.097v-5.231h0.947v5.231H154.752z"
				/>
			<path fill="#054372" d="M164.914,57.613v1.252h1.363v0.725h-1.363v2.82c0,0.65,0.187,1.017,0.714,1.017
				c0.258,0,0.411-0.024,0.553-0.063l0.045,0.722c-0.187,0.063-0.481,0.13-0.844,0.13c-0.445,0-0.8-0.148-1.029-0.399
				c-0.263-0.292-0.372-0.755-0.372-1.373V59.59h-0.81v-0.725h0.81v-0.977L164.914,57.613z"/>
			<path fill="#054372" d="M177.512,62.843c0,0.453,0.02,0.897,0.072,1.254h-0.856l-0.07-0.658h-0.034
				c-0.293,0.406-0.854,0.776-1.601,0.776c-1.058,0-1.601-0.743-1.601-1.502c0-1.264,1.125-1.955,3.148-1.945V60.66
				c0-0.422-0.119-1.212-1.188-1.2c-0.503,0-1.01,0.138-1.377,0.388l-0.217-0.638c0.435-0.27,1.072-0.453,1.732-0.453
				c1.599,0,1.991,1.091,1.991,2.132V62.843z M176.588,61.427c-1.035-0.019-2.216,0.165-2.216,1.177
				c0,0.629,0.413,0.909,0.886,0.909c0.694,0,1.136-0.431,1.285-0.874c0.033-0.108,0.045-0.219,0.045-0.303V61.427z"/>
			<path fill="#054372" d="M185.533,56.42h0.95v7.677h-0.95V56.42z"/>
			<path fill="#054372" d="M195.63,57.396c0,0.322-0.229,0.583-0.604,0.583c-0.348,0-0.574-0.261-0.574-0.583
				c0-0.325,0.24-0.597,0.596-0.597C195.393,56.799,195.63,57.056,195.63,57.396z M194.571,64.097v-5.231h0.95v5.231H194.571z"/>
			<path fill="#054372" d="M204.731,57.613v1.252h1.365v0.725h-1.365v2.82c0,0.65,0.185,1.017,0.714,1.017
				c0.26,0,0.413-0.024,0.555-0.063l0.045,0.722c-0.187,0.063-0.479,0.13-0.851,0.13c-0.44,0-0.796-0.148-1.025-0.399
				c-0.254-0.292-0.363-0.755-0.363-1.373V59.59h-0.813v-0.725h0.813v-0.977L204.731,57.613z"/>
			<path fill="#054372" d="M214.096,58.865l1.134,3.093c0.131,0.344,0.261,0.755,0.348,1.067h0.02
				c0.096-0.313,0.206-0.709,0.332-1.091l1.042-3.069h1.009l-1.431,3.728c-0.684,1.795-1.145,2.703-1.795,3.279
				c-0.473,0.4-0.93,0.561-1.168,0.603l-0.238-0.79c0.238-0.071,0.555-0.225,0.83-0.463c0.265-0.206,0.576-0.573,0.807-1.06
				c0.038-0.096,0.071-0.171,0.071-0.228c0-0.055-0.016-0.127-0.071-0.246l-1.927-4.823H214.096z"/>
		</g>
	</g>
	<g>
		<path fill="#054372" d="M186.322,35.087c0.12,7.335,4.739,10.352,10.225,10.352c3.881,0,6.29-0.675,8.26-1.539l0.984,3.885
			c-1.91,0.859-5.234,1.905-9.982,1.905c-9.183,0-14.669-6.098-14.669-15.094c0-9,5.303-16.024,13.996-16.024
			c9.795,0,12.318,8.502,12.318,13.988c0,1.114-0.063,1.909-0.182,2.527H186.322z M202.223,31.205
			c0.056-3.391-1.424-8.749-7.521-8.749c-5.556,0-7.89,4.988-8.324,8.749H202.223z"/>
		<path fill="#054372" d="M1.299,43.532c1.659,0.982,4.493,2.094,7.212,2.094c3.88,0,5.727-1.911,5.727-4.435
			c0-2.591-1.54-3.952-5.484-5.429c-5.42-1.97-7.949-4.864-7.949-8.438c0-4.81,3.942-8.754,10.291-8.754
			c3.021,0,5.666,0.8,7.271,1.847l-1.295,3.944c-1.168-0.739-3.326-1.786-6.102-1.786c-3.203,0-4.926,1.851-4.926,4.063
			c0,2.472,1.723,3.578,5.605,5.118c5.111,1.916,7.828,4.499,7.828,8.937c0,5.298-4.133,8.995-11.094,8.995
			c-3.266,0-6.29-0.86-8.384-2.09L1.299,43.532z"/>
		<path fill="#054372" d="M45.079,47.969c-1.422,0.675-4.561,1.721-8.567,1.721c-9.001,0-14.854-6.098-14.854-15.221
			c0-9.181,6.287-15.897,16.027-15.897c3.205,0,6.037,0.8,7.514,1.601l-1.228,4.131c-1.296-0.68-3.329-1.416-6.286-1.416
			c-6.846,0-10.541,5.11-10.541,11.275c0,6.903,4.439,11.153,10.35,11.153c3.088,0,5.118-0.737,6.657-1.416L45.079,47.969z"/>
		<path fill="#054372" d="M73.105,40.819c0,3.143,0.058,5.853,0.243,8.193h-4.803l-0.311-4.864h-0.124
			c-1.354,2.402-4.558,5.541-9.86,5.541c-4.683,0-10.296-2.646-10.296-13.063V19.185h5.43v16.459c0,5.668,1.787,9.552,6.654,9.552
			c3.64,0,6.16-2.527,7.149-4.989c0.312-0.745,0.493-1.729,0.493-2.774V19.185h5.425V40.819z"/>
		<path fill="#054372" d="M77.839,7.612h5.42v41.4h-5.42V7.612z"/>
		<path fill="#054372" d="M88.446,28.925c0-3.824-0.126-6.902-0.245-9.74h4.802l0.311,5.118h0.125
			c2.157-3.639,5.732-5.731,10.604-5.731c7.269,0,12.692,6.099,12.692,15.103c0,10.719-6.595,16.016-13.619,16.016
			c-3.944,0-7.399-1.721-9.188-4.68h-0.119v19.213h-5.361V28.925z M93.807,36.873c0,0.8,0.063,1.54,0.243,2.217
			c0.987,3.762,4.255,6.349,8.135,6.349c5.731,0,9.063-4.681,9.063-11.523c0-5.918-3.143-11.028-8.879-11.028
			c-3.693,0-7.204,2.586-8.191,6.653c-0.188,0.678-0.371,1.478-0.371,2.154V36.873z"/>
		<path fill="#054372" d="M126.433,12.147v7.037h7.77v4.131h-7.77V39.4c0,3.702,1.046,5.795,4.069,5.795
			c1.479,0,2.343-0.127,3.141-0.371l0.25,4.126c-1.048,0.373-2.717,0.739-4.809,0.739c-2.526,0-4.563-0.86-5.856-2.276
			c-1.478-1.667-2.091-4.311-2.091-7.825V23.315h-4.624v-4.131h4.624v-7.037H126.433z"/>
		<path fill="#054372" d="M161.981,40.819c0,3.143,0.057,5.853,0.246,8.193h-4.812l-0.302-4.864h-0.123
			c-1.357,2.402-4.565,5.541-9.86,5.541c-4.688,0-10.296-2.646-10.296-13.063V19.185h5.421v16.459c0,5.668,1.792,9.552,6.655,9.552
			c3.643,0,6.166-2.527,7.157-4.989c0.304-0.745,0.489-1.729,0.489-2.774V19.185h5.424V40.819z"/>
		<path fill="#054372" d="M166.573,28.765c0-3.511-0.063-6.532-0.246-9.307h4.744l0.251,5.918h0.178
			c1.358-4.008,4.686-6.532,8.323-6.532c0.553,0,0.984,0.061,1.479,0.124v5.115c-0.555-0.128-1.112-0.128-1.848-0.128
			c-3.825,0-6.532,2.838-7.271,6.907c-0.129,0.739-0.188,1.662-0.188,2.526v15.902h-5.421V28.765z"/>
	</g>
</g>
</svg>
