<?xml version="1.0" standalone="no"?>
<!DOCTYPE svg PUBLIC "-//W3C//DTD SVG 20010904//EN"
 "http://www.w3.org/TR/2001/REC-SVG-20010904/DTD/svg10.dtd">
<svg version="1.0" xmlns="http://www.w3.org/2000/svg"
 width="819.000000pt" height="460.000000pt" viewBox="0 0 819.000000 460.000000"
 preserveAspectRatio="xMidYMid meet">

<g transform="translate(0.000000,460.000000) scale(0.100000,-0.100000)"
fill="#000000" stroke="none">
<path d="M0 4335 c0 -13 457 -15 4055 -15 3598 0 4055 2 4055 15 0 13 -457 15
-4055 15 -3598 0 -4055 -2 -4055 -15z"/>
<path d="M4140 3665 c0 -11 -12 -15 -50 -15 -38 0 -50 -4 -50 -15 0 -11 -12
-15 -45 -15 -33 0 -45 -4 -45 -15 0 -9 -9 -15 -25 -15 -18 0 -25 -5 -25 -20 0
-15 -7 -20 -25 -20 -16 0 -25 -6 -25 -15 0 -8 -9 -15 -20 -15 -11 0 -20 -7
-20 -15 0 -10 -10 -15 -30 -15 -20 0 -30 -5 -30 -15 0 -8 -4 -15 -10 -15 -5 0
-10 -7 -10 -15 0 -9 -9 -15 -25 -15 -16 0 -25 -6 -25 -15 0 -8 -4 -15 -10 -15
-5 0 -10 -7 -10 -15 0 -8 -9 -15 -20 -15 -15 0 -20 -7 -20 -25 0 -16 -6 -25
-15 -25 -8 0 -15 -7 -15 -15 0 -8 -6 -15 -14 -15 -8 0 -17 -13 -21 -30 -4 -16
-13 -30 -21 -30 -8 0 -14 -7 -14 -15 0 -8 -7 -15 -15 -15 -8 0 -15 -7 -15 -15
0 -8 -6 -15 -14 -15 -8 0 -17 -13 -21 -30 -4 -16 -13 -30 -21 -30 -8 0 -14 -9
-14 -20 0 -11 -6 -20 -14 -20 -8 0 -17 -13 -21 -30 -4 -16 -13 -30 -21 -30 -8
0 -14 -7 -14 -15 0 -8 -4 -15 -10 -15 -5 0 -10 -7 -10 -15 0 -8 -7 -15 -15
-15 -8 0 -15 -7 -15 -15 0 -8 -4 -15 -10 -15 -5 0 -10 -18 -10 -40 0 -22 -4
-40 -10 -40 -6 0 -10 -30 -10 -70 0 -40 4 -70 10 -70 6 0 10 -13 10 -30 0 -16
5 -30 10 -30 6 0 10 -11 10 -25 0 -16 6 -25 15 -25 8 0 15 -7 15 -15 0 -8 5
-15 10 -15 6 0 10 -7 10 -15 0 -8 7 -15 15 -15 8 0 15 -7 15 -15 0 -8 9 -15
20 -15 18 0 20 7 20 70 0 54 3 70 14 70 8 0 17 14 21 30 4 17 13 30 21 30 8 0
14 7 14 15 0 8 7 15 15 15 8 0 15 5 15 10 0 6 16 10 35 10 24 0 35 5 35 15 0
13 36 15 260 15 224 0 260 2 260 15 0 8 7 15 15 15 12 0 15 19 15 115 0 96 -3
115 -15 115 -8 0 -15 7 -15 15 0 8 -7 15 -15 15 -8 0 -15 9 -15 20 0 19 -7 20
-245 20 -238 0 -245 -1 -245 -20 0 -11 -6 -20 -14 -20 -14 0 -26 -29 -26 -67
0 -22 -4 -23 -65 -23 l-65 0 0 30 c0 20 5 30 15 30 8 0 17 14 21 35 3 20 12
35 20 35 8 0 14 7 14 15 0 8 7 15 15 15 8 0 15 7 15 15 0 8 6 15 14 15 8 0 17
14 21 30 5 25 11 30 36 30 19 0 29 5 29 15 0 13 34 15 245 15 211 0 245 -2
245 -15 0 -10 10 -15 30 -15 20 0 30 -5 30 -15 0 -8 9 -15 20 -15 11 0 20 -7
20 -15 0 -8 6 -15 14 -15 20 0 28 -83 20 -215 -5 -87 -10 -115 -20 -115 -11 0
-14 -18 -14 -70 0 -54 -3 -70 -14 -70 -8 0 -17 -13 -21 -30 -6 -28 -10 -30
-51 -30 -40 0 -44 -2 -44 -25 l0 -25 -259 0 -259 0 -6 -22 c-3 -13 -6 -66 -6
-118 0 -108 6 -140 26 -140 8 0 14 -7 14 -15 0 -13 34 -15 245 -15 211 0 245
2 245 15 0 10 10 15 30 15 20 0 30 -5 30 -15 0 -8 -7 -15 -15 -15 -12 0 -15
-13 -15 -60 0 -47 -3 -60 -15 -60 -9 0 -15 -9 -15 -25 l0 -25 -210 0 c-180 0
-210 -2 -210 -15 0 -8 5 -15 10 -15 6 0 10 -7 10 -15 0 -8 7 -15 15 -15 8 0
15 -7 15 -15 0 -8 5 -15 10 -15 6 0 10 -7 10 -15 0 -8 5 -15 10 -15 6 0 10 -7
10 -15 0 -8 7 -15 15 -15 8 0 15 -7 15 -15 0 -8 6 -15 14 -15 8 0 17 -15 20
-35 6 -31 11 -35 36 -35 20 0 30 -5 30 -15 0 -8 9 -15 20 -15 11 0 20 -7 20
-15 0 -12 13 -15 60 -15 47 0 60 3 60 15 0 8 9 15 20 15 11 0 20 7 20 15 0 8
7 15 15 15 8 0 15 7 15 15 0 8 7 15 15 15 8 0 15 9 15 20 0 11 6 20 14 20 14
0 26 29 26 68 0 13 6 22 15 22 8 0 15 7 15 15 0 8 6 15 14 15 11 0 17 19 22
70 5 49 11 70 20 70 8 0 14 7 14 15 0 8 5 15 10 15 6 0 10 14 10 30 0 20 5 30
15 30 10 0 15 10 15 30 0 17 5 30 10 30 6 0 10 16 10 35 0 19 5 35 10 35 6 0
10 14 10 30 0 20 5 30 15 30 11 0 15 12 15 45 0 32 4 45 14 45 11 0 16 22 21
85 5 62 11 85 21 85 10 0 14 13 14 40 0 28 4 40 15 40 11 0 15 17 18 73 1 39
4 -80 5 -265 2 -293 4 -338 17 -338 10 0 15 -10 15 -30 0 -20 5 -30 15 -30 8
0 15 -7 15 -15 0 -8 9 -15 20 -15 11 0 20 -7 20 -15 0 -13 29 -15 205 -15 176
0 205 2 205 15 0 8 9 15 20 15 11 0 20 7 20 15 0 8 7 15 15 15 8 0 15 7 15 15
0 8 7 15 15 15 12 0 15 13 15 60 l0 60 -40 0 c-29 0 -40 -4 -40 -15 0 -8 -4
-15 -10 -15 -5 0 -10 -7 -10 -15 0 -8 -7 -15 -15 -15 -8 0 -15 -7 -15 -15 0
-13 -26 -15 -175 -15 -149 0 -175 2 -175 15 0 8 -7 15 -15 15 -13 0 -15 34
-15 250 0 216 2 250 15 250 8 0 15 7 15 15 0 13 33 15 240 15 l240 0 0 70 0
70 -255 0 -255 0 0 140 c0 87 -4 140 -10 140 -5 0 -10 7 -10 15 0 11 -11 15
-40 15 l-40 0 0 69 c0 99 -10 161 -26 161 -9 0 -14 12 -14 35 0 24 -5 35 -15
35 -8 0 -15 7 -15 15 0 8 -9 15 -20 15 -11 0 -20 7 -20 15 0 9 -9 15 -25 15
-16 0 -25 6 -25 15 0 12 -18 15 -105 15 -87 0 -105 -3 -105 -15z"/>
<path d="M6540 3275 c0 -8 -7 -15 -15 -15 -13 0 -15 -68 -15 -550 l0 -550 50
0 50 0 0 325 0 325 25 0 c16 0 25 6 25 15 0 13 25 15 165 15 140 0 165 -2 165
-15 0 -8 7 -15 15 -15 13 0 15 -40 15 -302 0 -167 3 -313 6 -325 5 -19 13 -23
49 -23 36 0 44 4 49 23 8 30 8 520 -1 625 -4 59 -10 82 -19 82 -8 0 -14 7 -14
15 0 8 -7 15 -15 15 -8 0 -15 7 -15 15 0 8 -9 15 -20 15 -11 0 -20 7 -20 15 0
13 -28 15 -195 15 -167 0 -195 -2 -195 -15 0 -8 -4 -15 -10 -15 -6 0 -10 58
-10 155 0 97 -4 155 -10 155 -5 0 -10 7 -10 15 0 9 -9 15 -25 15 -16 0 -25 -6
-25 -15z"/>
<path d="M1090 3105 c0 -131 -2 -155 -15 -155 -8 0 -15 7 -15 15 0 13 -26 15
-175 15 -149 0 -175 -2 -175 -15 0 -9 -9 -15 -25 -15 -16 0 -25 -6 -25 -15 0
-8 -4 -15 -10 -15 -5 0 -10 -7 -10 -15 0 -8 -6 -15 -14 -15 -8 0 -16 -15 -20
-37 -8 -50 -8 -527 0 -587 6 -40 10 -46 30 -46 15 0 24 -6 24 -15 0 -9 9 -15
25 -15 16 0 25 -6 25 -15 0 -13 26 -15 175 -15 149 0 175 2 175 15 0 10 11 15
35 15 24 0 35 5 35 15 0 8 7 15 15 15 10 0 15 10 15 30 0 20 5 30 15 30 13 0
15 61 15 490 l0 490 -50 0 -50 0 0 -155z m-30 -280 c0 -8 7 -15 15 -15 13 0
15 -34 15 -250 0 -216 -2 -250 -15 -250 -8 0 -15 -7 -15 -15 0 -13 -26 -15
-175 -15 -149 0 -175 2 -175 15 0 8 -4 15 -10 15 -6 0 -10 90 -10 250 0 160 4
250 10 250 6 0 10 7 10 15 0 13 26 15 175 15 149 0 175 -2 175 -15z"/>
<path d="M400 3155 c0 -8 -7 -15 -15 -15 -12 0 -15 -14 -15 -65 l0 -65 50 0
c49 0 50 1 50 30 0 20 5 30 15 30 8 0 15 9 15 20 0 11 -7 20 -15 20 -8 0 -15
7 -15 15 0 8 -7 15 -15 15 -8 0 -15 7 -15 15 0 8 -9 15 -20 15 -11 0 -20 -7
-20 -15z"/>
<path d="M502 2968 c-1 -13 -11 -18 -31 -18 -25 0 -31 -5 -36 -30 -4 -16 -13
-30 -21 -30 -10 0 -14 -12 -14 -40 0 -29 -4 -40 -15 -40 -13 0 -15 -43 -15
-325 l0 -325 50 0 50 0 0 325 c0 278 2 325 15 325 18 0 27 49 22 120 -2 30 -4
47 -5 38z"/>
<path d="M1380 2965 c0 -9 -9 -15 -25 -15 -16 0 -25 -6 -25 -15 0 -9 -9 -15
-25 -15 -22 0 -25 -4 -25 -40 0 -22 -4 -40 -10 -40 -6 0 -10 -100 -10 -280 0
-180 4 -280 10 -280 6 0 10 -13 10 -30 0 -25 4 -30 25 -30 16 0 25 -6 25 -15
0 -9 9 -15 25 -15 16 0 25 -6 25 -15 0 -13 26 -15 175 -15 149 0 175 2 175 15
0 11 11 15 39 15 41 0 51 13 51 68 0 13 6 22 15 22 10 0 15 10 15 30 0 23 -4
30 -20 30 -11 0 -20 7 -20 15 0 8 -7 15 -15 15 -8 0 -15 -7 -15 -15 0 -8 -7
-15 -15 -15 -8 0 -15 -7 -15 -15 0 -8 -4 -15 -10 -15 -5 0 -10 -7 -10 -15 0
-13 -26 -15 -175 -15 -149 0 -175 2 -175 15 0 8 -7 15 -15 15 -12 0 -15 17
-15 95 l0 95 200 0 c171 0 200 2 200 15 0 10 10 15 29 15 25 0 31 5 36 30 4
17 13 30 21 30 11 0 14 24 14 125 0 104 -2 125 -15 125 -11 0 -15 11 -15 40 0
33 -3 40 -20 40 -11 0 -20 7 -20 15 0 9 -9 15 -25 15 -16 0 -25 6 -25 15 0 13
-26 15 -175 15 -149 0 -175 -2 -175 -15z m350 -140 c0 -8 5 -15 10 -15 6 0 10
-35 10 -85 l0 -85 -200 0 -200 0 0 85 c0 69 3 85 15 85 8 0 15 7 15 15 0 13
26 15 175 15 149 0 175 -2 175 -15z"/>
<path d="M2710 2965 c0 -10 -11 -15 -35 -15 -24 0 -35 -5 -35 -15 0 -8 -7 -15
-15 -15 -8 0 -15 -7 -15 -15 0 -8 -4 -15 -10 -15 -6 0 -10 -57 -10 -150 0 -93
4 -150 10 -150 6 0 10 -7 10 -15 0 -8 7 -15 15 -15 8 0 15 -7 15 -15 0 -9 9
-15 25 -15 16 0 25 -6 25 -15 0 -13 27 -15 185 -15 158 0 185 -2 185 -15 0 -8
7 -15 15 -15 12 0 15 -16 15 -80 0 -64 -3 -80 -15 -80 -8 0 -15 -7 -15 -15 0
-13 -26 -15 -175 -15 -149 0 -175 2 -175 15 0 8 -4 15 -10 15 -5 0 -10 7 -10
15 0 8 -7 15 -15 15 -8 0 -15 7 -15 15 0 8 -4 15 -10 15 -5 0 -10 -7 -10 -15
0 -9 -9 -15 -25 -15 -21 0 -25 -5 -25 -30 0 -16 5 -30 10 -30 6 0 10 -13 10
-30 0 -20 5 -30 15 -30 8 0 15 -7 15 -15 0 -10 11 -15 35 -15 24 0 35 -5 35
-15 0 -13 26 -15 175 -15 149 0 175 2 175 15 0 10 10 15 30 15 20 0 30 5 30
15 0 8 9 15 20 15 16 0 20 7 20 30 0 20 5 30 15 30 13 0 15 21 15 125 0 104
-2 125 -15 125 -8 0 -15 7 -15 15 0 8 -7 15 -15 15 -8 0 -15 7 -15 15 0 8 -9
15 -20 15 -15 0 -20 7 -20 25 l0 25 -200 0 -200 0 0 85 c0 50 4 85 10 85 6 0
10 7 10 15 0 13 26 15 175 15 149 0 175 -2 175 -15 0 -8 7 -15 15 -15 10 0 15
-10 15 -30 0 -29 1 -30 50 -30 l50 0 0 70 c0 56 -3 70 -15 70 -8 0 -15 7 -15
15 0 8 -7 15 -15 15 -8 0 -15 7 -15 15 0 10 -11 15 -35 15 -24 0 -35 5 -35 15
0 13 -26 15 -175 15 -149 0 -175 -2 -175 -15z"/>
<path d="M5300 2965 c0 -10 -11 -15 -35 -15 -24 0 -35 -5 -35 -15 0 -8 -6 -15
-14 -15 -20 0 -26 -87 -26 -365 0 -267 5 -335 26 -335 8 0 14 -7 14 -15 0 -9
9 -15 25 -15 16 0 25 -6 25 -15 0 -13 29 -15 200 -15 171 0 200 2 200 15 0 8
9 15 20 15 11 0 20 7 20 15 0 8 7 15 15 15 8 0 15 7 15 15 0 8 7 15 15 15 12
0 15 13 15 60 l0 60 -35 0 c-24 0 -35 -5 -35 -15 0 -8 -7 -15 -15 -15 -8 0
-15 -7 -15 -15 0 -8 -4 -15 -10 -15 -5 0 -10 -7 -10 -15 0 -13 -27 -15 -180
-15 -153 0 -180 2 -180 15 0 8 -4 15 -10 15 -6 0 -10 38 -10 95 l0 95 214 0
214 0 7 30 c4 17 13 30 21 30 8 0 14 7 14 15 0 8 7 15 15 15 13 0 15 23 15
150 0 127 -2 150 -15 150 -8 0 -15 7 -15 15 0 8 -7 15 -15 15 -8 0 -15 7 -15
15 0 8 -9 15 -20 15 -11 0 -20 7 -20 15 0 13 -28 15 -190 15 -162 0 -190 -2
-190 -15z m360 -140 c0 -8 5 -15 10 -15 6 0 10 -30 10 -70 0 -40 -4 -70 -10
-70 -5 0 -10 -7 -10 -15 0 -13 -28 -15 -190 -15 l-190 0 0 85 c0 50 4 85 10
85 6 0 10 7 10 15 0 13 27 15 180 15 153 0 180 -2 180 -15z"/>
<path d="M5970 2965 c0 -10 -11 -15 -35 -15 -24 0 -35 -5 -35 -15 0 -8 -4 -15
-10 -15 -5 0 -10 -18 -10 -40 0 -29 -4 -40 -15 -40 -13 0 -15 -38 -15 -280 0
-242 2 -280 15 -280 10 0 15 -10 15 -30 0 -16 5 -30 10 -30 6 0 10 -7 10 -15
0 -9 9 -15 25 -15 16 0 25 -6 25 -15 0 -13 29 -15 200 -15 171 0 200 2 200 15
0 9 9 15 24 15 19 0 26 7 31 30 4 17 13 30 21 30 10 0 14 15 14 60 l0 60 -35
0 c-24 0 -35 -5 -35 -15 0 -8 -4 -15 -10 -15 -5 0 -10 -7 -10 -15 0 -8 -4 -15
-10 -15 -5 0 -10 -7 -10 -15 0 -13 -27 -15 -180 -15 -153 0 -180 2 -180 15 0
8 -4 15 -10 15 -6 0 -10 90 -10 250 0 160 4 250 10 250 6 0 10 7 10 15 0 13
27 15 180 15 153 0 180 -2 180 -15 0 -8 5 -15 10 -15 6 0 10 -7 10 -15 0 -8 5
-15 10 -15 6 0 10 -7 10 -15 0 -10 11 -15 35 -15 l35 0 0 70 c0 54 -3 70 -14
70 -8 0 -17 14 -21 30 -5 23 -12 30 -31 30 -15 0 -24 6 -24 15 0 13 -28 15
-190 15 -162 0 -190 -2 -190 -15z"/>
<path d="M1990 2935 c0 -8 -4 -15 -10 -15 -5 0 -10 -7 -10 -15 0 -8 -4 -15
-10 -15 -5 0 -10 -11 -10 -25 0 -16 -6 -25 -15 -25 -13 0 -15 -38 -15 -280 0
-242 2 -280 15 -280 10 0 15 -10 15 -30 0 -23 4 -30 20 -30 11 0 20 -7 20 -15
0 -9 9 -15 25 -15 16 0 25 -6 25 -15 0 -13 27 -15 180 -15 153 0 180 2 180 15
0 8 9 15 20 15 11 0 20 7 20 15 0 10 10 15 30 15 20 0 30 -5 30 -15 0 -8 9
-15 20 -15 11 0 20 -7 20 -15 0 -8 7 -15 15 -15 12 0 15 13 15 60 0 47 -3 60
-15 60 -8 0 -15 7 -15 15 0 8 -7 15 -15 15 -13 0 -15 35 -15 253 0 271 -5 327
-26 327 -8 0 -14 7 -14 15 0 8 -7 15 -15 15 -8 0 -15 7 -15 15 0 13 -32 15
-225 15 -193 0 -225 -2 -225 -15z m410 -110 c0 -8 7 -15 15 -15 13 0 15 -34
15 -250 0 -216 -2 -250 -15 -250 -8 0 -15 -7 -15 -15 0 -13 -27 -15 -180 -15
-153 0 -180 2 -180 15 0 8 -4 15 -10 15 -6 0 -10 90 -10 250 0 160 4 250 10
250 6 0 10 7 10 15 0 13 27 15 180 15 153 0 180 -2 180 -15z"/>
</g>
</svg>
